<svg class="kbd" width="100%" height="100%" viewBox="0 0 47 21" fill="none" xmlns="http://www.w3.org/2000/svg">
  <path d="M17.3493 13.8333H15.2254V7.03044H17.3493C19.2874 7.03044 20.8648 5.45297 20.8648 3.51494C20.8648 1.5769 19.2874 0 17.3493 0C15.4113 0 13.8338 1.5769 13.8338 3.51494V5.63888H7.03043V3.51494C7.03043 1.5769 5.45297 0 3.5155 0C1.5769 0 0 1.5769 0 3.51494C0 5.45297 1.5769 7.03044 3.5155 7.03044H5.63888V13.8333H3.5155C1.5769 13.8333 0 15.4107 0 17.3488C0 19.2868 1.5769 20.8643 3.5155 20.8643C5.45297 20.8643 7.03043 19.2868 7.03043 17.3488V15.2248H13.8338V17.3488C13.8338 19.2868 15.4113 20.8643 17.3493 20.8643C19.2874 20.8643 20.8648 19.2868 20.8648 17.3488C20.8648 15.4107 19.2879 13.8333 17.3493 13.8333ZM15.2259 3.51494C15.2259 2.34367 16.1781 1.39155 17.3499 1.39155C18.5217 1.39155 19.4738 2.3431 19.4738 3.51494C19.4738 4.68677 18.5217 5.63888 17.3499 5.63888H15.2259V3.51494ZM3.5155 5.63832C2.34423 5.63832 1.39155 4.68621 1.39155 3.51437C1.39155 2.34254 2.34367 1.39099 3.5155 1.39099C4.6862 1.39099 5.63888 2.34254 5.63888 3.51437V5.63832H3.5155ZM5.63832 17.3488C5.63832 18.52 4.6862 19.4727 3.51494 19.4727C2.34367 19.4727 1.39099 18.5206 1.39099 17.3488C1.39099 16.1769 2.3431 15.2248 3.51494 15.2248H5.63832V17.3488ZM7.03043 13.8333V7.03044H13.8338V13.8333H7.03043ZM17.3493 19.4727C16.1781 19.4727 15.2254 18.5206 15.2254 17.3488V15.2248H17.3493C18.5206 15.2248 19.4733 16.1769 19.4733 17.3488C19.4733 18.5206 18.5206 19.4727 17.3493 19.4727Z" fill="black"/>
  <path d="M44.4168 20.864C44.0328 20.864 43.5741 20.7147 43.0408 20.416C42.5075 20.1173 41.9101 19.68 41.2488 19.104C40.5875 18.5067 39.8728 17.7813 39.1048 16.928C38.3368 16.0533 37.5261 15.0613 36.6728 13.952C35.8195 12.8427 34.9235 11.6053 33.9848 10.24L41.9528 1.056L42.4008 1.792L39.2008 1.184C39.2008 0.864 39.2435 0.618667 39.3288 0.448C39.4141 0.277333 39.5635 0.128 39.7768 0H45.9528C45.9528 0.704 45.7288 1.09867 45.2808 1.184L42.9128 1.792L44.0008 0.896L35.6808 10.464L36.0328 9.472C36.7155 10.3467 37.4835 11.296 38.3368 12.32C39.2115 13.344 40.1181 14.3467 41.0568 15.328C41.9955 16.3093 42.9128 17.2053 43.8088 18.016C44.7048 18.8267 45.5368 19.4667 46.3048 19.936C46.0915 20.2133 45.8248 20.4373 45.5048 20.608C45.1848 20.7787 44.8221 20.864 44.4168 20.864ZM28.8648 20.512C28.8648 20.1707 28.9075 19.904 28.9928 19.712C29.0995 19.52 29.2275 19.4027 29.3768 19.36L31.5208 18.784L31.0408 19.296V1.248L31.5528 1.792L28.8648 1.184C28.8648 0.885333 28.9075 0.650667 28.9928 0.48C29.0781 0.309334 29.2381 0.149334 29.4728 0H35.9048C35.9048 0.341334 35.8621 0.608 35.7768 0.799999C35.6915 0.991999 35.5635 1.10933 35.3928 1.152L33.1208 1.728L33.6648 1.184V19.264L33.0888 18.72L35.9048 19.328C35.9048 19.6053 35.8621 19.8293 35.7768 20C35.7128 20.1707 35.5635 20.3413 35.3288 20.512H28.8648Z" fill="black"/>
  </svg>